<?xml version="1.0" standalone="no"?><!DOCTYPE svg PUBLIC "-//W3C//DTD SVG 1.1//EN" "http://www.w3.org/Graphics/SVG/1.1/DTD/svg11.dtd"><svg t="1677920388908" class="icon" viewBox="0 0 1024 1024" version="1.1" xmlns="http://www.w3.org/2000/svg" p-id="5560" xmlns:xlink="http://www.w3.org/1999/xlink" width="200" height="200"><path d="M996 767.44c0 52.16-170.72 94.48-381.36 94.48s-381.28-42.32-381.28-94.48 170.72-94.48 381.28-94.48 381.36 42.32 381.36 94.48z" fill="#B8CBCD" opacity=".5" p-id="5561"></path><path d="M948 136.96h-512L235.92 337.68v455.28H748l200-175.12V139.2" fill="#F6E89A" p-id="5562"></path><path d="M228 353.68a24 24 0 0 1-16.96-40.96L411.12 112a24 24 0 0 1 16.96-7.04h512a24 24 0 0 1 0 48H438.08L245.04 346.64a24 24 0 0 1-17.04 7.04z" fill="#8D4520" p-id="5563"></path><path d="M740.08 808.96h-512a24 24 0 0 1-24-24V329.68a24 24 0 0 1 48 0v431.28h488a24 24 0 0 1 0 48z" fill="#8D4520" p-id="5564"></path><path d="M748 808.96a24 24 0 0 1-16-42.08l192-168V131.2a24 24 0 0 1 48 0v478.64a24 24 0 0 1-8 18.08l-200 175.12a24 24 0 0 1-16 5.92z" fill="#8D4520" p-id="5565"></path><path d="M740 352.96h-512a15.44 15.44 0 0 1-16-15.28c0-8.8 14.64-16.4 16-16.72h504l196.72-195.28a16 16 0 0 1 22.72 22.48l-198.4 200.8a19.68 19.68 0 0 1-13.04 4z" fill="#8D4520" p-id="5566"></path><path d="M740.08 808.96a16 16 0 0 1-16-16v-456a16 16 0 1 1 32 0v456a16 16 0 0 1-16 16zM436 577.84a16 16 0 0 1-16-16v-48.88a16 16 0 1 1 32 0v48.88a16 16 0 0 1-16 16z m0-112.88a16 16 0 0 1-16-16v-64a16 16 0 0 1 32 0v64a16 16 0 0 1-16 16z m0-128a16 16 0 0 1-16-16v-64a16 16 0 0 1 32 0v64a16 16 0 0 1-16 16z m0-128a16 16 0 0 1-16-16v-64a16 16 0 1 1 32 0v64a16 16 0 0 1-16 16zM235.92 800.96a16 16 0 0 1-10.48-28.08l72.72-62.8a16 16 0 0 1 20.88 24l-72.64 62.96a16 16 0 0 1-10.48 3.92z m145.36-125.44a16 16 0 0 1-10.48-28.16l37.52-32a16 16 0 0 1 20.88 24L392 672a16 16 0 0 1-10.72 3.52z" fill="#8D4520" p-id="5567"></path><path d="M948 624.96h-64a16 16 0 0 1 0-32h64a16 16 0 0 1 0 32z m-128 0h-64a16 16 0 0 1 0-32h64a16 16 0 0 1 0 32z m-128 0h-64a16 16 0 0 1 0-32h64a16 16 0 0 1 0 32z m-128 0h-64a16 16 0 0 1 0-32h64a16 16 0 0 1 0 32z" fill="#8D4520" p-id="5568"></path><path d="M453.04 842.16L254.24 464.96 52.72 842a18.48 18.48 0 0 0-7.12 13.36c0 28.32 92.72 51.36 207.2 51.36s207.2-23.04 207.2-51.36a18.56 18.56 0 0 0-6.96-13.2z" fill="#B2EDA6" p-id="5569"></path><path d="M252.8 930.72c-38.64 0-231.2-3.68-231.2-75.36a40 40 0 0 1 11.6-27.76l200-374a24 24 0 0 1 21.2-12.64 24 24 0 0 1 21.12 12.8l197.2 374.08a40.56 40.56 0 0 1 11.36 27.52c-0.08 71.68-192.72 75.36-231.28 75.36z m-179.52-76.24c18.56 11.36 80.56 28.24 179.52 28.24s161.12-16.88 179.6-28.32l-0.64-1.04-177.68-337.2-180.16 337.12a8.72 8.72 0 0 0-0.64 1.2z" fill="#3C663E" p-id="5570"></path><path d="M289.28 920.96a16 16 0 0 1-0.56-32c21.76-0.8 42.8-2.4 62.32-4.88a16 16 0 1 1 4.08 32c-20.56 2.56-42.48 4.32-65.28 5.12z m-64 0h-0.64c-22.88-0.96-44.8-2.8-65.28-5.52a16 16 0 1 1 4.24-32c19.52 2.56 40.48 4.32 62.32 5.2a16 16 0 0 1-0.64 32zM416 904a16 16 0 0 1-4.4-31.36c32-9.04 38.08-17.52 38.96-18.88a16 16 0 0 1 32 0.64c0 20.96-20.32 37.04-62.16 48.96a13.6 13.6 0 0 1-4.4 0.64z m-317.04-1.12a16 16 0 0 1-4.64-0.64c-39.12-11.84-58.16-27.52-58.16-48a29.36 29.36 0 0 1 1.2-8 16 16 0 0 1 30.96 8c1.36 1.84 8 9.36 35.28 17.52a16 16 0 0 1-4.64 31.28z m324.48-64a14.88 14.88 0 0 1-4.88-0.8 377.68 377.68 0 0 0-59.84-12.8 16 16 0 0 1 4.4-32 395.28 395.28 0 0 1 65.2 14 16 16 0 0 1-4.88 31.28z m-317.04-3.28a16 16 0 0 1-4.16-31.44A468 468 0 0 1 167.28 792a16 16 0 0 1 3.84 32 435.76 435.76 0 0 0-60.64 11.2 15.44 15.44 0 0 1-4.24 0.32z m190.8-16H296c-12.32-0.56-25.2-0.88-37.84-0.8-8.4 0-16.8 0-24.96 0.4a16 16 0 1 1-0.96-32c8.72 0 17.68 0 26.64-0.4 13.04 0 26 0 38.56 0.88a16 16 0 0 1-0.72 32z" fill="#3C663E" p-id="5571"></path></svg>